# xmcd
#
# Track frame offsets:
# 150
# 13863
# 29125
# 48043
# 69660
# 88385
# 98855
# 112843
# 136543
# 151485
# 162825
# 181778
# 196738
# 214333
#
# Disc length: 3030 seconds
#
#
# Revision: 0
# Processed by: cddbd v1.5.1PL2 Copyright (c) Steve Scherf et al.
# Submitted via: FreeRIP 2.30 
#
DISCID=b70bd40e
DTITLE=Townes Van Zandt - No Deeper Blue
DYEAR=1994
DGENRE=Country
TTITLE0=A Song For
TTITLE1=Blaze's Blues
TTITLE2=The Hole
TTITLE3=Marie
TTITLE4=Goin' Down To Memphis
TTITLE5=Hey Willie Boy
TTITLE6=Niles River Blues
TTITLE7=Billy, Boney And Ma
TTITLE8=Katie Belle Blue
TTITLE9=If I Was Washington
TTITLE10=Lover's Lullaby
TTITLE11=Cowboy Junkies Lament
TTITLE12=BW Railroad Blues
TTITLE13=Gone Too Long
EXTD=
EXTT0=Composed by Townes Van Zandt
EXTT1=Composed by Townes Van Zandt
EXTT2=Composed by Townes Van Zandt
EXTT3=Composed by Townes Van Zandt
EXTT4=Composed by Townes Van Zandt
EXTT5=Composed by Townes Van Zandt
EXTT6=Composed by Townes Van Zandt
EXTT7=Composed by Townes Van Zandt
EXTT8=Composed by Townes Van Zandt
EXTT9=Composed by Townes Van Zandt
EXTT10=Composed by Townes Van Zandt
EXTT11=Composed by Townes Van Zandt
EXTT12=Composed by Townes Van Zandt
EXTT13=Composed by Townes Van Zandt
PLAYORDER=
